<svg xmlns="http://www.w3.org/2000/svg" style="display:none"><symbol id="tree-icon-document" viewBox="0 0 24 24"><path d="M6.2 2.5h8.2L19.5 7.6v12.1a1.8 1.8 0 0 1-1.8 1.8H6.2a1.8 1.8 0 0 1-1.8-1.8V4.3a1.8 1.8 0 0 1 1.8-1.8z" fill="#fff" stroke="#c9ced3" stroke-width="1.1"/><path d="M14.2 2.8v4.6c0 .55.45 1 1 1h4" fill="#f3f4f6" stroke="#c9ced3" stroke-linejoin="round" stroke-width="1.1"/><path d="M8 12.6h8.4M8 15.4h7.3M8 18.1h5.3" stroke="#aeb5bc" stroke-width="1.25" stroke-linecap="round"/></symbol><symbol id="tree-icon-doc" viewBox="0 0 24 24"><path d="M6.2 2.5h8.2L19.5 7.6v12.1a1.8 1.8 0 0 1-1.8 1.8H6.2a1.8 1.8 0 0 1-1.8-1.8V4.3a1.8 1.8 0 0 1 1.8-1.8z" fill="#fff" stroke="#c9ced3" stroke-width="1.05"/><path d="M14.2 2.8v4.6c0 .55.45 1 1 1h4" fill="#0d65d9" stroke="#0b55bb" stroke-linejoin="round" stroke-width="1.05"/><path d="M2.8 5.8h11.1a1.2 1.2 0 0 1 1.2 1.2v4.2H2.8z" fill="#0d65d9"/><text x="8.95" y="9.55" text-anchor="middle" font-family="Arial,Helvetica,sans-serif" font-size="4.15" font-weight="700" fill="#fff">DOC</text><rect x="6.9" y="12.1" width="10.4" height="5.2" rx=".8" fill="none" stroke="#0d65d9" stroke-width="1.15"/><text x="10.2" y="16.25" text-anchor="middle" font-family="Arial,Helvetica,sans-serif" font-size="4.6" font-weight="700" fill="#0d65d9">W</text><path d="M13.2 13.4h2.5M13.2 14.8h2.9M13.2 16.2h2.2M7.4 18.6h8.8M7.4 20h6" stroke="#6d95ca" stroke-width=".75" stroke-linecap="round"/></symbol></svg>