<svg xmlns="http://www.w3.org/2000/svg" style="display:none"><symbol id="tree-icon-odp" viewBox="0 0 24 24"><path fill="#f5f7fa" stroke="#8a98a8" d="M6 2.5h8.5L20.5 8v13.5h-15z"/><path fill="#dde5ee" d="M14 3v5.5h6"/><rect x="3.5" y="12" width="17" height="7.8" rx="1.6" fill="#607d8b"/><text x="12" y="17.55" text-anchor="middle" font-family="Arial,Helvetica,sans-serif" font-size="5" font-weight="700" fill="#fff">ODP</text></symbol><symbol id="tree-icon-ods" viewBox="0 0 24 24"><path fill="#f5f7fa" stroke="#8a98a8" d="M6 2.5h8.5L20.5 8v13.5h-15z"/><path fill="#dde5ee" d="M14 3v5.5h6"/><rect x="3.5" y="12" width="17" height="7.8" rx="1.6" fill="#607d8b"/><text x="12" y="17.55" text-anchor="middle" font-family="Arial,Helvetica,sans-serif" font-size="5" font-weight="700" fill="#fff">ODS</text></symbol><symbol id="tree-icon-odt" viewBox="0 0 24 24"><path fill="#f5f7fa" stroke="#8a98a8" d="M6 2.5h8.5L20.5 8v13.5h-15z"/><path fill="#dde5ee" d="M14 3v5.5h6"/><rect x="3.5" y="12" width="17" height="7.8" rx="1.6" fill="#607d8b"/><text x="12" y="17.55" text-anchor="middle" font-family="Arial,Helvetica,sans-serif" font-size="5" font-weight="700" fill="#fff">ODT</text></symbol><symbol id="tree-icon-pages" viewBox="0 0 24 24"><path fill="#f5f7fa" stroke="#8a98a8" d="M6 2.5h8.5L20.5 8v13.5h-15z"/><path fill="#dde5ee" d="M14 3v5.5h6"/><rect x="3.5" y="12" width="17" height="7.8" rx="1.6" fill="#607d8b"/><text x="12" y="17.55" text-anchor="middle" font-family="Arial,Helvetica,sans-serif" font-size="4.2" font-weight="700" fill="#fff">PAGES</text></symbol><symbol id="tree-icon-parquet" viewBox="0 0 24 24"><path fill="#f5f7fa" stroke="#8a98a8" d="M6 2.5h8.5L20.5 8v13.5h-15z"/><path fill="#dde5ee" d="M14 3v5.5h6"/><rect x="3.5" y="12" width="17" height="7.8" rx="1.6" fill="#607d8b"/><text x="12" y="17.55" text-anchor="middle" font-family="Arial,Helvetica,sans-serif" font-size="4.2" font-weight="700" fill="#fff">PARQUET</text></symbol><symbol id="tree-icon-psd" viewBox="0 0 24 24"><path fill="#f5f7fa" stroke="#8a98a8" d="M6 2.5h8.5L20.5 8v13.5h-15z"/><path fill="#dde5ee" d="M14 3v5.5h6"/><rect x="3.5" y="12" width="17" height="7.8" rx="1.6" fill="#607d8b"/><text x="12" y="17.55" text-anchor="middle" font-family="Arial,Helvetica,sans-serif" font-size="5" font-weight="700" fill="#fff">PSD</text></symbol><symbol id="tree-icon-rst" viewBox="0 0 24 24"><path fill="#f5f7fa" stroke="#8a98a8" d="M6 2.5h8.5L20.5 8v13.5h-15z"/><path fill="#dde5ee" d="M14 3v5.5h6"/><rect x="3.5" y="12" width="17" height="7.8" rx="1.6" fill="#607d8b"/><text x="12" y="17.55" text-anchor="middle" font-family="Arial,Helvetica,sans-serif" font-size="5" font-weight="700" fill="#fff">RST</text></symbol><symbol id="tree-icon-rtf" viewBox="0 0 24 24"><path fill="#f5f7fa" stroke="#8a98a8" d="M6 2.5h8.5L20.5 8v13.5h-15z"/><path fill="#dde5ee" d="M14 3v5.5h6"/><rect x="3.5" y="12" width="17" height="7.8" rx="1.6" fill="#607d8b"/><text x="12" y="17.55" text-anchor="middle" font-family="Arial,Helvetica,sans-serif" font-size="5" font-weight="700" fill="#fff">RTF</text></symbol><symbol id="tree-icon-tar" viewBox="0 0 24 24"><path fill="#f5f7fa" stroke="#8a98a8" d="M6 2.5h8.5L20.5 8v13.5h-15z"/><path fill="#dde5ee" d="M14 3v5.5h6"/><rect x="3.5" y="12" width="17" height="7.8" rx="1.6" fill="#8d6e63"/><text x="12" y="17.55" text-anchor="middle" font-family="Arial,Helvetica,sans-serif" font-size="5" font-weight="700" fill="#fff">TAR</text></symbol><symbol id="tree-icon-tex" viewBox="0 0 24 24"><path fill="#f5f7fa" stroke="#8a98a8" d="M6 2.5h8.5L20.5 8v13.5h-15z"/><path fill="#dde5ee" d="M14 3v5.5h6"/><rect x="3.5" y="12" width="17" height="7.8" rx="1.6" fill="#607d8b"/><text x="12" y="17.55" text-anchor="middle" font-family="Arial,Helvetica,sans-serif" font-size="5" font-weight="700" fill="#fff">TEX</text></symbol><symbol id="tree-icon-tif" viewBox="0 0 24 24"><path fill="#f5f7fa" stroke="#8a98a8" d="M6 2.5h8.5L20.5 8v13.5h-15z"/><path fill="#dde5ee" d="M14 3v5.5h6"/><rect x="3.5" y="12" width="17" height="7.8" rx="1.6" fill="#607d8b"/><text x="12" y="17.55" text-anchor="middle" font-family="Arial,Helvetica,sans-serif" font-size="5" font-weight="700" fill="#fff">TIF</text></symbol><symbol id="tree-icon-tiff" viewBox="0 0 24 24"><path fill="#f5f7fa" stroke="#8a98a8" d="M6 2.5h8.5L20.5 8v13.5h-15z"/><path fill="#dde5ee" d="M14 3v5.5h6"/><rect x="3.5" y="12" width="17" height="7.8" rx="1.6" fill="#607d8b"/><text x="12" y="17.55" text-anchor="middle" font-family="Arial,Helvetica,sans-serif" font-size="4.2" font-weight="700" fill="#fff">TIFF</text></symbol><symbol id="tree-icon-toml" viewBox="0 0 24 24"><path fill="#f5f7fa" stroke="#8a98a8" d="M6 2.5h8.5L20.5 8v13.5h-15z"/><path fill="#dde5ee" d="M14 3v5.5h6"/><rect x="3.5" y="12" width="17" height="7.8" rx="1.6" fill="#607d8b"/><text x="12" y="17.55" text-anchor="middle" font-family="Arial,Helvetica,sans-serif" font-size="4.2" font-weight="700" fill="#fff">TOML</text></symbol><symbol id="tree-icon-tsv" viewBox="0 0 24 24"><path fill="#f5f7fa" stroke="#8a98a8" d="M6 2.5h8.5L20.5 8v13.5h-15z"/><path fill="#dde5ee" d="M14 3v5.5h6"/><rect x="3.5" y="12" width="17" height="7.8" rx="1.6" fill="#607d8b"/><text x="12" y="17.55" text-anchor="middle" font-family="Arial,Helvetica,sans-serif" font-size="5" font-weight="700" fill="#fff">TSV</text></symbol><symbol id="tree-icon-txt" viewBox="0 0 24 24"><path fill="#f5f7fa" stroke="#8a98a8" d="M6 2.5h8.5L20.5 8v13.5h-15z"/><path fill="#dde5ee" d="M14 3v5.5h6"/><rect x="3.5" y="12" width="17" height="7.8" rx="1.6" fill="#607d8b"/><text x="12" y="17.55" text-anchor="middle" font-family="Arial,Helvetica,sans-serif" font-size="5" font-weight="700" fill="#fff">TXT</text></symbol><symbol id="tree-icon-webp" viewBox="0 0 24 24"><path fill="#f5f7fa" stroke="#8a98a8" d="M6 2.5h8.5L20.5 8v13.5h-15z"/><path fill="#dde5ee" d="M14 3v5.5h6"/><rect x="3.5" y="12" width="17" height="7.8" rx="1.6" fill="#7e57c2"/><text x="12" y="17.55" text-anchor="middle" font-family="Arial,Helvetica,sans-serif" font-size="4.2" font-weight="700" fill="#fff">WEBP</text></symbol></svg>