<svg xmlns="http://www.w3.org/2000/svg" style="display:none"><symbol id="tree-icon-7z" viewBox="0 0 24 24"><path fill="#f5f7fa" stroke="#8a98a8" d="M6 2.5h8.5L20.5 8v13.5h-15z"/><path fill="#dde5ee" d="M14 3v5.5h6"/><rect x="3.5" y="12" width="17" height="7.8" rx="1.6" fill="#8d6e63"/><text x="12" y="17.55" text-anchor="middle" font-family="Arial,Helvetica,sans-serif" font-size="5" font-weight="700" fill="#fff">7Z</text></symbol><symbol id="tree-icon-ai" viewBox="0 0 24 24"><path fill="#f5f7fa" stroke="#8a98a8" d="M6 2.5h8.5L20.5 8v13.5h-15z"/><path fill="#dde5ee" d="M14 3v5.5h6"/><rect x="3.5" y="12" width="17" height="7.8" rx="1.6" fill="#607d8b"/><text x="12" y="17.55" text-anchor="middle" font-family="Arial,Helvetica,sans-serif" font-size="5" font-weight="700" fill="#fff">AI</text></symbol><symbol id="tree-icon-company-lit" viewBox="0 0 24 24"><path fill="#49637a" d="M4 21V5.8L12 3l8 2.8V21h-5v-4h-6v4z"/><path fill="#324a5f" d="M6 20h3v-4h6v4h3V7.2l-6-2.1-6 2.1z"/><path fill="#ffd85a" d="M8 8h2v2H8zm4 0h2v2h-2zm4 0h2v2h-2zM8 12h2v2H8zm4 0h2v2h-2zm4 0h2v2h-2z"/></symbol><symbol id="tree-icon-company-unlit" viewBox="0 0 24 24"><path fill="#49637a" d="M4 21V5.8L12 3l8 2.8V21h-5v-4h-6v4z"/><path fill="#324a5f" d="M6 20h3v-4h6v4h3V7.2l-6-2.1-6 2.1z"/><path fill="#7b8794" d="M8 8h2v2H8zm4 0h2v2h-2zm4 0h2v2h-2zM8 12h2v2H8zm4 0h2v2h-2zm4 0h2v2h-2z"/></symbol><symbol id="tree-icon-css" viewBox="0 0 24 24"><path fill="#f5f7fa" stroke="#8a98a8" d="M6 2.5h8.5L20.5 8v13.5h-15z"/><path fill="#dde5ee" d="M14 3v5.5h6"/><rect x="3.5" y="12" width="17" height="7.8" rx="1.6" fill="#607d8b"/><text x="12" y="17.55" text-anchor="middle" font-family="Arial,Helvetica,sans-serif" font-size="5" font-weight="700" fill="#fff">CSS</text></symbol><symbol id="tree-icon-csv" viewBox="0 0 24 24"><path fill="#f5f7fa" stroke="#8a98a8" d="M6 2.5h8.5L20.5 8v13.5h-15z"/><path fill="#dde5ee" d="M14 3v5.5h6"/><rect x="3.5" y="12" width="17" height="7.8" rx="1.6" fill="#1e8e3e"/><text x="12" y="17.55" text-anchor="middle" font-family="Arial,Helvetica,sans-serif" font-size="5" font-weight="700" fill="#fff">CSV</text></symbol><symbol id="tree-icon-doc" viewBox="0 0 24 24"><path fill="#f5f7fa" stroke="#8a98a8" d="M6 2.5h8.5L20.5 8v13.5h-15z"/><path fill="#dde5ee" d="M14 3v5.5h6"/><rect x="3.5" y="12" width="17" height="7.8" rx="1.6" fill="#2b579a"/><text x="12" y="17.55" text-anchor="middle" font-family="Arial,Helvetica,sans-serif" font-size="5" font-weight="700" fill="#fff">DOC</text></symbol><symbol id="tree-icon-document" viewBox="0 0 24 24"><path fill="#f5f7fa" stroke="#8a98a8" d="M6 2.5h8.5L20.5 8v13.5h-15z"/><path fill="#dde5ee" d="M14 3v5.5h6"/><path stroke="#8a98a8" stroke-linecap="round" d="M8 12.5h8M8 15.5h8M8 18.5h5"/></symbol><symbol id="tree-icon-docx" viewBox="0 0 24 24"><path fill="#f5f7fa" stroke="#8a98a8" d="M6 2.5h8.5L20.5 8v13.5h-15z"/><path fill="#dde5ee" d="M14 3v5.5h6"/><rect x="3.5" y="12" width="17" height="7.8" rx="1.6" fill="#2b579a"/><text x="12" y="17.55" text-anchor="middle" font-family="Arial,Helvetica,sans-serif" font-size="4.2" font-weight="700" fill="#fff">DOCX</text></symbol><symbol id="tree-icon-fig" viewBox="0 0 24 24"><path fill="#f5f7fa" stroke="#8a98a8" d="M6 2.5h8.5L20.5 8v13.5h-15z"/><path fill="#dde5ee" d="M14 3v5.5h6"/><rect x="3.5" y="12" width="17" height="7.8" rx="1.6" fill="#607d8b"/><text x="12" y="17.55" text-anchor="middle" font-family="Arial,Helvetica,sans-serif" font-size="5" font-weight="700" fill="#fff">FIG</text></symbol><symbol id="tree-icon-folder-closed" viewBox="0 0 24 24"><path fill="#f6c85f" d="M2 6.5A2.5 2.5 0 0 1 4.5 4H9l2 2h8.5A2.5 2.5 0 0 1 22 8.5v1H2z"/><path fill="#e8a93a" d="M2 9h20v8.5A2.5 2.5 0 0 1 19.5 20h-15A2.5 2.5 0 0 1 2 17.5z"/></symbol><symbol id="tree-icon-folder-open" viewBox="0 0 24 24"><path fill="#f6c85f" d="M2.5 7A2.5 2.5 0 0 1 5 4.5h4l2 2h7.5A2.5 2.5 0 0 1 21 9v1H7.6a2 2 0 0 0-1.8 1.1L2.5 18z"/><path fill="#e8a93a" d="M6.2 11.6A2 2 0 0 1 8 10.5h13.2a1 1 0 0 1 .9 1.45l-3 6A2 2 0 0 1 17.3 19H3.8a1 1 0 0 1-.9-1.45z"/></symbol><symbol id="tree-icon-gz" viewBox="0 0 24 24"><path fill="#f5f7fa" stroke="#8a98a8" d="M6 2.5h8.5L20.5 8v13.5h-15z"/><path fill="#dde5ee" d="M14 3v5.5h6"/><rect x="3.5" y="12" width="17" height="7.8" rx="1.6" fill="#8d6e63"/><text x="12" y="17.55" text-anchor="middle" font-family="Arial,Helvetica,sans-serif" font-size="5" font-weight="700" fill="#fff">GZ</text></symbol><symbol id="tree-icon-htm" viewBox="0 0 24 24"><path fill="#f5f7fa" stroke="#8a98a8" d="M6 2.5h8.5L20.5 8v13.5h-15z"/><path fill="#dde5ee" d="M14 3v5.5h6"/><rect x="3.5" y="12" width="17" height="7.8" rx="1.6" fill="#607d8b"/><text x="12" y="17.55" text-anchor="middle" font-family="Arial,Helvetica,sans-serif" font-size="5" font-weight="700" fill="#fff">HTM</text></symbol><symbol id="tree-icon-html" viewBox="0 0 24 24"><path fill="#f5f7fa" stroke="#8a98a8" d="M6 2.5h8.5L20.5 8v13.5h-15z"/><path fill="#dde5ee" d="M14 3v5.5h6"/><rect x="3.5" y="12" width="17" height="7.8" rx="1.6" fill="#607d8b"/><text x="12" y="17.55" text-anchor="middle" font-family="Arial,Helvetica,sans-serif" font-size="4.2" font-weight="700" fill="#fff">HTML</text></symbol><symbol id="tree-icon-ini" viewBox="0 0 24 24"><path fill="#f5f7fa" stroke="#8a98a8" d="M6 2.5h8.5L20.5 8v13.5h-15z"/><path fill="#dde5ee" d="M14 3v5.5h6"/><rect x="3.5" y="12" width="17" height="7.8" rx="1.6" fill="#607d8b"/><text x="12" y="17.55" text-anchor="middle" font-family="Arial,Helvetica,sans-serif" font-size="5" font-weight="700" fill="#fff">INI</text></symbol><symbol id="tree-icon-jpeg" viewBox="0 0 24 24"><path fill="#f5f7fa" stroke="#8a98a8" d="M6 2.5h8.5L20.5 8v13.5h-15z"/><path fill="#dde5ee" d="M14 3v5.5h6"/><rect x="3.5" y="12" width="17" height="7.8" rx="1.6" fill="#7e57c2"/><text x="12" y="17.55" text-anchor="middle" font-family="Arial,Helvetica,sans-serif" font-size="4.2" font-weight="700" fill="#fff">JPEG</text></symbol><symbol id="tree-icon-jpg" viewBox="0 0 24 24"><path fill="#f5f7fa" stroke="#8a98a8" d="M6 2.5h8.5L20.5 8v13.5h-15z"/><path fill="#dde5ee" d="M14 3v5.5h6"/><rect x="3.5" y="12" width="17" height="7.8" rx="1.6" fill="#7e57c2"/><text x="12" y="17.55" text-anchor="middle" font-family="Arial,Helvetica,sans-serif" font-size="5" font-weight="700" fill="#fff">JPG</text></symbol><symbol id="tree-icon-json" viewBox="0 0 24 24"><path fill="#f5f7fa" stroke="#8a98a8" d="M6 2.5h8.5L20.5 8v13.5h-15z"/><path fill="#dde5ee" d="M14 3v5.5h6"/><rect x="3.5" y="12" width="17" height="7.8" rx="1.6" fill="#f4b400"/><text x="12" y="17.55" text-anchor="middle" font-family="Arial,Helvetica,sans-serif" font-size="4.2" font-weight="700" fill="#fff">JSON</text></symbol><symbol id="tree-icon-key" viewBox="0 0 24 24"><path fill="#f5f7fa" stroke="#8a98a8" d="M6 2.5h8.5L20.5 8v13.5h-15z"/><path fill="#dde5ee" d="M14 3v5.5h6"/><rect x="3.5" y="12" width="17" height="7.8" rx="1.6" fill="#607d8b"/><text x="12" y="17.55" text-anchor="middle" font-family="Arial,Helvetica,sans-serif" font-size="5" font-weight="700" fill="#fff">KEY</text></symbol><symbol id="tree-icon-log" viewBox="0 0 24 24"><path fill="#f5f7fa" stroke="#8a98a8" d="M6 2.5h8.5L20.5 8v13.5h-15z"/><path fill="#dde5ee" d="M14 3v5.5h6"/><rect x="3.5" y="12" width="17" height="7.8" rx="1.6" fill="#607d8b"/><text x="12" y="17.55" text-anchor="middle" font-family="Arial,Helvetica,sans-serif" font-size="5" font-weight="700" fill="#fff">LOG</text></symbol><symbol id="tree-icon-md" viewBox="0 0 24 24"><path fill="#f5f7fa" stroke="#8a98a8" d="M6 2.5h8.5L20.5 8v13.5h-15z"/><path fill="#dde5ee" d="M14 3v5.5h6"/><rect x="3.5" y="12" width="17" height="7.8" rx="1.6" fill="#4a5568"/><text x="12" y="17.55" text-anchor="middle" font-family="Arial,Helvetica,sans-serif" font-size="5" font-weight="700" fill="#fff">MD</text></symbol><symbol id="tree-icon-mdx" viewBox="0 0 24 24"><path fill="#f5f7fa" stroke="#8a98a8" d="M6 2.5h8.5L20.5 8v13.5h-15z"/><path fill="#dde5ee" d="M14 3v5.5h6"/><rect x="3.5" y="12" width="17" height="7.8" rx="1.6" fill="#4a5568"/><text x="12" y="17.55" text-anchor="middle" font-family="Arial,Helvetica,sans-serif" font-size="5" font-weight="700" fill="#fff">MDX</text></symbol><symbol id="tree-icon-pdf" viewBox="0 0 24 24"><path fill="#f5f7fa" stroke="#8a98a8" d="M6 2.5h8.5L20.5 8v13.5h-15z"/><path fill="#dde5ee" d="M14 3v5.5h6"/><rect x="3.5" y="12" width="17" height="7.8" rx="1.6" fill="#e53935"/><text x="12" y="17.55" text-anchor="middle" font-family="Arial,Helvetica,sans-serif" font-size="5" font-weight="700" fill="#fff">PDF</text></symbol><symbol id="tree-icon-png" viewBox="0 0 24 24"><path fill="#f5f7fa" stroke="#8a98a8" d="M6 2.5h8.5L20.5 8v13.5h-15z"/><path fill="#dde5ee" d="M14 3v5.5h6"/><rect x="3.5" y="12" width="17" height="7.8" rx="1.6" fill="#7e57c2"/><text x="12" y="17.55" text-anchor="middle" font-family="Arial,Helvetica,sans-serif" font-size="5" font-weight="700" fill="#fff">PNG</text></symbol><symbol id="tree-icon-ppt" viewBox="0 0 24 24"><path fill="#f5f7fa" stroke="#8a98a8" d="M6 2.5h8.5L20.5 8v13.5h-15z"/><path fill="#dde5ee" d="M14 3v5.5h6"/><rect x="3.5" y="12" width="17" height="7.8" rx="1.6" fill="#d24726"/><text x="12" y="17.55" text-anchor="middle" font-family="Arial,Helvetica,sans-serif" font-size="5" font-weight="700" fill="#fff">PPT</text></symbol><symbol id="tree-icon-pptx" viewBox="0 0 24 24"><path fill="#f5f7fa" stroke="#8a98a8" d="M6 2.5h8.5L20.5 8v13.5h-15z"/><path fill="#dde5ee" d="M14 3v5.5h6"/><rect x="3.5" y="12" width="17" height="7.8" rx="1.6" fill="#d24726"/><text x="12" y="17.55" text-anchor="middle" font-family="Arial,Helvetica,sans-serif" font-size="4.2" font-weight="700" fill="#fff">PPTX</text></symbol><symbol id="tree-icon-svg" viewBox="0 0 24 24"><path fill="#f5f7fa" stroke="#8a98a8" d="M6 2.5h8.5L20.5 8v13.5h-15z"/><path fill="#dde5ee" d="M14 3v5.5h6"/><rect x="3.5" y="12" width="17" height="7.8" rx="1.6" fill="#ffb300"/><text x="12" y="17.55" text-anchor="middle" font-family="Arial,Helvetica,sans-serif" font-size="5" font-weight="700" fill="#fff">SVG</text></symbol><symbol id="tree-icon-xls" viewBox="0 0 24 24"><path fill="#f5f7fa" stroke="#8a98a8" d="M6 2.5h8.5L20.5 8v13.5h-15z"/><path fill="#dde5ee" d="M14 3v5.5h6"/><rect x="3.5" y="12" width="17" height="7.8" rx="1.6" fill="#167c3a"/><text x="12" y="17.55" text-anchor="middle" font-family="Arial,Helvetica,sans-serif" font-size="5" font-weight="700" fill="#fff">XLS</text></symbol><symbol id="tree-icon-xlsm" viewBox="0 0 24 24"><path fill="#f5f7fa" stroke="#8a98a8" d="M6 2.5h8.5L20.5 8v13.5h-15z"/><path fill="#dde5ee" d="M14 3v5.5h6"/><rect x="3.5" y="12" width="17" height="7.8" rx="1.6" fill="#167c3a"/><text x="12" y="17.55" text-anchor="middle" font-family="Arial,Helvetica,sans-serif" font-size="4.2" font-weight="700" fill="#fff">XLSM</text></symbol><symbol id="tree-icon-xlsx" viewBox="0 0 24 24"><path fill="#f5f7fa" stroke="#8a98a8" d="M6 2.5h8.5L20.5 8v13.5h-15z"/><path fill="#dde5ee" d="M14 3v5.5h6"/><rect x="3.5" y="12" width="17" height="7.8" rx="1.6" fill="#167c3a"/><text x="12" y="17.55" text-anchor="middle" font-family="Arial,Helvetica,sans-serif" font-size="4.2" font-weight="700" fill="#fff">XLSX</text></symbol><symbol id="tree-icon-xml" viewBox="0 0 24 24"><path fill="#f5f7fa" stroke="#8a98a8" d="M6 2.5h8.5L20.5 8v13.5h-15z"/><path fill="#dde5ee" d="M14 3v5.5h6"/><rect x="3.5" y="12" width="17" height="7.8" rx="1.6" fill="#fb8c00"/><text x="12" y="17.55" text-anchor="middle" font-family="Arial,Helvetica,sans-serif" font-size="5" font-weight="700" fill="#fff">XML</text></symbol><symbol id="tree-icon-yaml" viewBox="0 0 24 24"><path fill="#f5f7fa" stroke="#8a98a8" d="M6 2.5h8.5L20.5 8v13.5h-15z"/><path fill="#dde5ee" d="M14 3v5.5h6"/><rect x="3.5" y="12" width="17" height="7.8" rx="1.6" fill="#607d8b"/><text x="12" y="17.55" text-anchor="middle" font-family="Arial,Helvetica,sans-serif" font-size="4.2" font-weight="700" fill="#fff">YAML</text></symbol><symbol id="tree-icon-yml" viewBox="0 0 24 24"><path fill="#f5f7fa" stroke="#8a98a8" d="M6 2.5h8.5L20.5 8v13.5h-15z"/><path fill="#dde5ee" d="M14 3v5.5h6"/><rect x="3.5" y="12" width="17" height="7.8" rx="1.6" fill="#607d8b"/><text x="12" y="17.55" text-anchor="middle" font-family="Arial,Helvetica,sans-serif" font-size="5" font-weight="700" fill="#fff">YML</text></symbol><symbol id="tree-icon-zip" viewBox="0 0 24 24"><path fill="#f5f7fa" stroke="#8a98a8" d="M6 2.5h8.5L20.5 8v13.5h-15z"/><path fill="#dde5ee" d="M14 3v5.5h6"/><rect x="3.5" y="12" width="17" height="7.8" rx="1.6" fill="#8d6e63"/><text x="12" y="17.55" text-anchor="middle" font-family="Arial,Helvetica,sans-serif" font-size="5" font-weight="700" fill="#fff">ZIP</text></symbol></svg>